Coordinates
datacolumns 6
datarows 61
range 85.05 85.65
inDegrees=yes
Units are S.I. units (second, meters, Newtons, ...)
If the header above contains a line with 'inDegrees', this indicates whether rotational values are in degrees (yes) or radians (no).
endheader
time	foot_tx	hip_flexion_r	knee_angle_r	ankle_angle_r	lumbar
85.05	0.19145476	54.81723211	-72.47476255	4.25668773	-28.82968851
85.06	0.19141105	55.01342457	-72.46313001	4.2692276	-28.93304252
85.07	0.19137612	55.21671945	-72.45032214	4.28163335	-29.04355288
85.08	0.19134729	55.42918869	-72.43574912	4.29334309	-29.16026048
85.09	0.19132399	55.65092265	-72.41964722	4.30447496	-29.28343011
85.1	0.19130818	55.8509921	-72.39818822	4.31555672	-29.44776078
85.11	0.19128912	56.12420362	-72.38316494	4.32525863	-29.54906554
85.12	0.19127309	56.34207169	-72.36009687	4.33703889	-29.729055
85.13	0.19125074	56.63542277	-72.34394756	4.34801499	-29.8435382
85.14	0.19122457	56.90255038	-72.32466876	4.3620515	-30.00383858
85.15	0.19119552	57.17675009	-72.30491812	4.3777264	-30.17308155
85.16	0.19116397	57.42743428	-72.28175947	4.39646728	-30.38440867
85.17	0.19112507	57.74110222	-72.2652263	4.41640517	-30.54140309
85.18	0.19109109	58.00525261	-72.24146459	4.439744	-30.76821754
85.19	0.19104784	58.32434605	-72.22239793	4.46426426	-30.94998288
85.2	0.19101152	58.60336484	-72.19679532	4.4918545	-31.19083663
85.21	0.19097124	58.93241159	-72.17422304	4.52006241	-31.3918937
85.22	0.19093632	59.22706417	-72.14647415	4.55173841	-31.64597496
85.23	0.19089854	59.58150407	-72.1208238	4.58257875	-31.85171944
85.24	0.19086166	59.93218863	-72.09367153	4.61595844	-32.07874869
85.25	0.19082588	60.30369171	-72.06550117	4.65008626	-32.30073519
85.26	0.19079207	60.69253136	-72.0370077	4.68602573	-32.52007871
85.27	0.19075398	61.10304801	-72.00867982	4.72398213	-32.7321533
85.28	0.19071699	61.54161118	-71.98017012	4.76253195	-32.93055181
85.29	0.19068038	62.0155928	-71.95180476	4.80084762	-33.10778074
85.3	0.19064422	62.5256034	-71.92347149	4.83901509	-33.26232182
85.31	0.19061111	63.06507714	-71.89398976	4.87758775	-33.39922287
85.32	0.19058243	63.62549251	-71.86185055	4.91760857	-33.52509891
85.33	0.19055659	64.19212956	-71.82713672	4.96193834	-33.65259729
85.34	0.19052976	64.75618399	-71.78923436	5.01229226	-33.78967193
85.35	0.19050961	65.31245335	-71.74649212	5.06851488	-33.94025275
85.36	0.19048834	65.85935014	-71.69955693	5.13205227	-34.10600159
85.37	0.1904748	66.39697691	-71.64891664	5.20235408	-34.28651118
85.38	0.19045947	66.9309345	-71.59450584	5.27932632	-34.47686259
85.39	0.19044703	67.46541957	-71.53675661	5.36218054	-34.67230609
85.4	0.19044459	68.00651756	-71.47614199	5.44985456	-34.86566857
85.41	0.19046206	68.5640296	-71.41136662	5.54000263	-35.04577926
85.42	0.19046453	69.12922566	-71.35116578	5.64049983	-35.22182815
85.43	0.19049436	69.72443655	-71.28644369	5.74175766	-35.36813896
85.44	0.19054334	70.34683705	-71.22097622	5.84714062	-35.48569673
85.45	0.19061141	70.99990393	-71.15343305	5.95627276	-35.56893964
85.46	0.19070297	71.67986953	-71.08156322	6.06890839	-35.61956692
85.47	0.19081645	72.38499014	-71.00530209	6.18573992	-35.63692768
85.48	0.19095106	73.11637301	-70.91911163	6.3044436	-35.61708847
85.49	0.19110632	73.86846326	-70.82098247	6.42492149	-35.5630201
85.5	0.19128519	74.64042776	-70.70865693	6.54635459	-35.47156807
85.51	0.19148615	75.42667411	-70.57929804	6.66811084	-35.34528858
85.52	0.19170747	76.2218175	-70.4319892	6.79056002	-35.18564928
85.53	0.191944	77.01721096	-70.26688894	6.91503819	-34.99750949
85.54	0.19220361	77.80624856	-70.08409737	7.04182798	-34.78324415
85.55	0.19247187	78.57567748	-69.88600519	7.17420267	-34.55207469
85.56	0.19275483	79.31551987	-69.67376165	7.31282234	-34.31025147
85.57	0.19304197	80.01995306	-69.45083104	7.45973988	-34.05810374
85.58	0.19331653	80.67871926	-69.22313825	7.61896007	-33.80183184
85.59	0.19357959	81.2900062	-68.99240749	7.78994438	-33.53796314
85.6	0.19382578	81.84636031	-68.7641042	7.97454913	-33.27151295
85.61	0.19405559	82.34545496	-68.54223113	8.17278238	-33.00348451
85.62	0.19426605	82.78316193	-68.33044242	8.3848678	-32.73749336
85.63	0.19446514	83.15949156	-68.12999275	8.6085757	-32.47522463
85.64	0.19465074	83.47174994	-67.94453672	8.84421209	-32.22113133
85.65	0.19482664	83.72070943	-67.77284223	9.08905869	-31.97434251
